<mxfile host="app.diagrams.net" agent="Mozilla/5.0 (Windows NT 10.0; Win64; x64) AppleWebKit/537.36 (KHTML, like Gecko) Chrome/133.0.0.0 Safari/537.36 Edg/133.0.0.0" version="26.0.16" pages="5">
  <diagram name="用户管理" id="0783ab3e-0a74-02c8-0abd-f7b4e66b4bec">
    <mxGraphModel dx="1117" dy="1965" grid="1" gridSize="10" guides="1" tooltips="1" connect="1" arrows="1" fold="1" page="1" pageScale="1" pageWidth="850" pageHeight="1100" background="none" math="0" shadow="0">
      <root>
        <mxCell id="0" />
        <mxCell id="1" parent="0" />
        <mxCell id="1c1d494c118603dd-1" value="用户管理" style="swimlane;html=1;childLayout=stackLayout;startSize=20;rounded=0;shadow=0;comic=0;labelBackgroundColor=none;strokeWidth=2;fontFamily=宋体;fontSize=14;align=center;fontStyle=1" parent="1" vertex="1">
          <mxGeometry x="40" width="600" height="780" as="geometry" />
        </mxCell>
        <mxCell id="1c1d494c118603dd-2" value="用户" style="swimlane;html=1;startSize=20;fontSize=14;strokeWidth=2;fontFamily=宋体;fontStyle=1" parent="1c1d494c118603dd-1" vertex="1">
          <mxGeometry y="20" width="200" height="760" as="geometry" />
        </mxCell>
        <mxCell id="pGZNJNF9JH5jrCQHHoNG-2" style="edgeStyle=orthogonalEdgeStyle;rounded=0;orthogonalLoop=1;jettySize=auto;html=1;exitX=0.5;exitY=1;exitDx=0;exitDy=0;entryX=0.5;entryY=0;entryDx=0;entryDy=0;fontSize=14;fontFamily=宋体;strokeWidth=2;fontStyle=1" parent="1c1d494c118603dd-2" source="60571a20871a0731-4" target="pGZNJNF9JH5jrCQHHoNG-1" edge="1">
          <mxGeometry relative="1" as="geometry" />
        </mxCell>
        <mxCell id="60571a20871a0731-4" value="" style="ellipse;whiteSpace=wrap;html=1;rounded=0;shadow=0;comic=0;labelBackgroundColor=none;strokeWidth=1;fillColor=#000000;fontFamily=宋体;fontSize=14;align=center;fontStyle=1" parent="1c1d494c118603dd-2" vertex="1">
          <mxGeometry x="80" y="40" width="40" height="40" as="geometry" />
        </mxCell>
        <mxCell id="pGZNJNF9JH5jrCQHHoNG-5" style="edgeStyle=orthogonalEdgeStyle;rounded=0;orthogonalLoop=1;jettySize=auto;html=1;exitX=0.5;exitY=1;exitDx=0;exitDy=0;entryX=0.5;entryY=0;entryDx=0;entryDy=0;fontSize=14;fontFamily=宋体;strokeWidth=2;fontStyle=1" parent="1c1d494c118603dd-2" source="pGZNJNF9JH5jrCQHHoNG-1" target="pGZNJNF9JH5jrCQHHoNG-4" edge="1">
          <mxGeometry relative="1" as="geometry" />
        </mxCell>
        <mxCell id="pGZNJNF9JH5jrCQHHoNG-12" value="否" style="edgeLabel;html=1;align=center;verticalAlign=middle;resizable=0;points=[];fontSize=14;fontFamily=宋体;fontStyle=1" parent="pGZNJNF9JH5jrCQHHoNG-5" vertex="1" connectable="0">
          <mxGeometry x="-0.4" y="2" relative="1" as="geometry">
            <mxPoint x="8" y="88" as="offset" />
          </mxGeometry>
        </mxCell>
        <mxCell id="pGZNJNF9JH5jrCQHHoNG-7" style="edgeStyle=orthogonalEdgeStyle;rounded=0;orthogonalLoop=1;jettySize=auto;html=1;exitX=0;exitY=0.5;exitDx=0;exitDy=0;entryX=0;entryY=0.5;entryDx=0;entryDy=0;fontSize=14;fontFamily=宋体;strokeWidth=2;fontStyle=1" parent="1c1d494c118603dd-2" source="pGZNJNF9JH5jrCQHHoNG-1" target="60571a20871a0731-5" edge="1">
          <mxGeometry relative="1" as="geometry">
            <Array as="points">
              <mxPoint x="20" y="140" />
              <mxPoint x="20" y="720" />
            </Array>
          </mxGeometry>
        </mxCell>
        <mxCell id="pGZNJNF9JH5jrCQHHoNG-1" value="判断登录状态" style="rhombus;whiteSpace=wrap;html=1;fontSize=14;fontFamily=宋体;strokeWidth=2;fontStyle=1" parent="1c1d494c118603dd-2" vertex="1">
          <mxGeometry x="40" y="110" width="120" height="60" as="geometry" />
        </mxCell>
        <mxCell id="pGZNJNF9JH5jrCQHHoNG-31" style="edgeStyle=orthogonalEdgeStyle;rounded=0;orthogonalLoop=1;jettySize=auto;html=1;exitX=0.5;exitY=1;exitDx=0;exitDy=0;entryX=0.5;entryY=0;entryDx=0;entryDy=0;fontFamily=宋体;strokeWidth=2;fontSize=14;fontStyle=1" parent="1c1d494c118603dd-2" source="pGZNJNF9JH5jrCQHHoNG-4" target="pGZNJNF9JH5jrCQHHoNG-30" edge="1">
          <mxGeometry relative="1" as="geometry" />
        </mxCell>
        <mxCell id="pGZNJNF9JH5jrCQHHoNG-4" value="已有账号" style="rhombus;whiteSpace=wrap;html=1;fontSize=14;fontFamily=宋体;strokeWidth=2;fontStyle=1" parent="1c1d494c118603dd-2" vertex="1">
          <mxGeometry x="40" y="230" width="120" height="60" as="geometry" />
        </mxCell>
        <mxCell id="60571a20871a0731-5" value="" style="shape=mxgraph.bpmn.shape;html=1;verticalLabelPosition=bottom;labelBackgroundColor=#ffffff;verticalAlign=top;perimeter=ellipsePerimeter;outline=end;symbol=terminate;rounded=0;shadow=0;comic=0;strokeWidth=1;fontFamily=宋体;fontSize=14;align=center;fontStyle=1" parent="1c1d494c118603dd-2" vertex="1">
          <mxGeometry x="80" y="700" width="40" height="40" as="geometry" />
        </mxCell>
        <mxCell id="pGZNJNF9JH5jrCQHHoNG-11" value="是" style="text;html=1;align=center;verticalAlign=middle;resizable=0;points=[];autosize=1;strokeColor=none;fillColor=none;fontSize=14;fontFamily=宋体;fontStyle=1" parent="1c1d494c118603dd-2" vertex="1">
          <mxGeometry x="20" y="290" width="40" height="30" as="geometry" />
        </mxCell>
        <mxCell id="pGZNJNF9JH5jrCQHHoNG-10" style="edgeStyle=orthogonalEdgeStyle;rounded=0;orthogonalLoop=1;jettySize=auto;html=1;exitX=0;exitY=0.5;exitDx=0;exitDy=0;entryX=0;entryY=0.5;entryDx=0;entryDy=0;fontSize=14;fontFamily=宋体;strokeWidth=2;fontStyle=1" parent="1c1d494c118603dd-2" source="pGZNJNF9JH5jrCQHHoNG-4" target="60571a20871a0731-8" edge="1">
          <mxGeometry relative="1" as="geometry">
            <mxPoint x="100" y="340" as="targetPoint" />
            <Array as="points">
              <mxPoint x="30" y="260" />
              <mxPoint x="30" y="480" />
            </Array>
          </mxGeometry>
        </mxCell>
        <mxCell id="60571a20871a0731-8" value="登录" style="rounded=0;whiteSpace=wrap;html=1;shadow=0;comic=0;labelBackgroundColor=none;strokeWidth=2;fontFamily=宋体;fontSize=14;align=center;arcSize=50;fontStyle=1" parent="1c1d494c118603dd-2" vertex="1">
          <mxGeometry x="60" y="460" width="80" height="40" as="geometry" />
        </mxCell>
        <mxCell id="pGZNJNF9JH5jrCQHHoNG-26" style="edgeStyle=orthogonalEdgeStyle;rounded=0;orthogonalLoop=1;jettySize=auto;html=1;exitX=0.5;exitY=1;exitDx=0;exitDy=0;entryX=0.5;entryY=0;entryDx=0;entryDy=0;fontFamily=宋体;strokeWidth=2;fontSize=14;fontStyle=1" parent="1c1d494c118603dd-2" source="pGZNJNF9JH5jrCQHHoNG-24" target="60571a20871a0731-5" edge="1">
          <mxGeometry relative="1" as="geometry" />
        </mxCell>
        <mxCell id="pGZNJNF9JH5jrCQHHoNG-24" value="登录成功" style="rounded=0;whiteSpace=wrap;html=1;shadow=0;comic=0;labelBackgroundColor=none;strokeWidth=2;fontFamily=宋体;fontSize=14;align=center;arcSize=50;fontStyle=1" parent="1c1d494c118603dd-2" vertex="1">
          <mxGeometry x="60" y="620" width="80" height="40" as="geometry" />
        </mxCell>
        <mxCell id="pGZNJNF9JH5jrCQHHoNG-27" value="是" style="text;html=1;align=center;verticalAlign=middle;resizable=0;points=[];autosize=1;strokeColor=none;fillColor=none;fontSize=14;fontFamily=宋体;fontStyle=1" parent="1c1d494c118603dd-2" vertex="1">
          <mxGeometry x="20" y="180" width="40" height="30" as="geometry" />
        </mxCell>
        <mxCell id="pGZNJNF9JH5jrCQHHoNG-30" value="注册" style="rounded=0;whiteSpace=wrap;html=1;shadow=0;comic=0;labelBackgroundColor=none;strokeWidth=2;fontFamily=宋体;fontSize=14;align=center;arcSize=50;fontStyle=1" parent="1c1d494c118603dd-2" vertex="1">
          <mxGeometry x="60" y="340" width="80" height="40" as="geometry" />
        </mxCell>
        <mxCell id="pGZNJNF9JH5jrCQHHoNG-33" value="否" style="text;html=1;align=center;verticalAlign=middle;resizable=0;points=[];autosize=1;strokeColor=none;fillColor=none;fontSize=14;fontFamily=宋体;fontStyle=1" parent="1c1d494c118603dd-2" vertex="1">
          <mxGeometry x="100" y="180" width="40" height="30" as="geometry" />
        </mxCell>
        <mxCell id="pGZNJNF9JH5jrCQHHoNG-34" value="否" style="text;html=1;align=center;verticalAlign=middle;resizable=0;points=[];autosize=1;strokeColor=none;fillColor=none;fontSize=14;fontFamily=宋体;fontStyle=1" parent="1c1d494c118603dd-2" vertex="1">
          <mxGeometry x="100" y="290" width="40" height="30" as="geometry" />
        </mxCell>
        <mxCell id="pGZNJNF9JH5jrCQHHoNG-52" style="edgeStyle=orthogonalEdgeStyle;rounded=0;orthogonalLoop=1;jettySize=auto;html=1;exitX=0.5;exitY=1;exitDx=0;exitDy=0;entryX=0.5;entryY=0;entryDx=0;entryDy=0;fontFamily=宋体;strokeWidth=2;fontSize=14;fontStyle=1" parent="1c1d494c118603dd-2" source="pGZNJNF9JH5jrCQHHoNG-51" target="pGZNJNF9JH5jrCQHHoNG-24" edge="1">
          <mxGeometry relative="1" as="geometry" />
        </mxCell>
        <mxCell id="pGZNJNF9JH5jrCQHHoNG-51" value="注册成功" style="rounded=0;whiteSpace=wrap;html=1;shadow=0;comic=0;labelBackgroundColor=none;strokeWidth=2;fontFamily=宋体;fontSize=14;align=center;arcSize=50;fontStyle=1" parent="1c1d494c118603dd-2" vertex="1">
          <mxGeometry x="60" y="540" width="80" height="40" as="geometry" />
        </mxCell>
        <mxCell id="1c1d494c118603dd-3" value="用户管理系统" style="swimlane;html=1;startSize=20;fontSize=14;strokeWidth=2;fontFamily=宋体;fontStyle=1" parent="1c1d494c118603dd-1" vertex="1">
          <mxGeometry x="200" y="20" width="200" height="760" as="geometry" />
        </mxCell>
        <mxCell id="pGZNJNF9JH5jrCQHHoNG-22" value="登录校验" style="rhombus;whiteSpace=wrap;html=1;fontSize=14;fontFamily=宋体;strokeWidth=2;fontStyle=1" parent="1c1d494c118603dd-3" vertex="1">
          <mxGeometry x="40" y="450" width="120" height="60" as="geometry" />
        </mxCell>
        <mxCell id="pGZNJNF9JH5jrCQHHoNG-35" value="信息校验" style="rhombus;whiteSpace=wrap;html=1;fontSize=14;fontFamily=宋体;strokeWidth=2;fontStyle=1" parent="1c1d494c118603dd-3" vertex="1">
          <mxGeometry x="40" y="330" width="120" height="60" as="geometry" />
        </mxCell>
        <mxCell id="pGZNJNF9JH5jrCQHHoNG-44" value="通过" style="text;html=1;align=center;verticalAlign=middle;resizable=0;points=[];autosize=1;strokeColor=none;fillColor=none;fontSize=14;fontFamily=宋体;fontStyle=1" parent="1c1d494c118603dd-3" vertex="1">
          <mxGeometry x="105" y="510" width="50" height="30" as="geometry" />
        </mxCell>
        <mxCell id="pGZNJNF9JH5jrCQHHoNG-47" value="不通过" style="text;html=1;align=center;verticalAlign=middle;resizable=0;points=[];autosize=1;strokeColor=none;fillColor=none;fontSize=14;fontFamily=宋体;fontStyle=1" parent="1c1d494c118603dd-3" vertex="1">
          <mxGeometry x="130" y="330" width="70" height="30" as="geometry" />
        </mxCell>
        <mxCell id="pGZNJNF9JH5jrCQHHoNG-49" value="不通过" style="text;html=1;align=center;verticalAlign=middle;resizable=0;points=[];autosize=1;strokeColor=none;fillColor=none;fontSize=14;fontFamily=宋体;fontStyle=1" parent="1c1d494c118603dd-3" vertex="1">
          <mxGeometry x="130" y="450" width="70" height="30" as="geometry" />
        </mxCell>
        <mxCell id="pGZNJNF9JH5jrCQHHoNG-45" value="通过" style="text;html=1;align=center;verticalAlign=middle;resizable=0;points=[];autosize=1;strokeColor=none;fillColor=none;fontSize=14;fontFamily=宋体;fontStyle=1" parent="1c1d494c118603dd-3" vertex="1">
          <mxGeometry x="105" y="380" width="50" height="30" as="geometry" />
        </mxCell>
        <mxCell id="1c1d494c118603dd-4" value="MySQL数据库" style="swimlane;html=1;startSize=20;fontSize=14;strokeWidth=2;fontFamily=宋体;fontStyle=1" parent="1c1d494c118603dd-1" vertex="1">
          <mxGeometry x="400" y="20" width="200" height="760" as="geometry" />
        </mxCell>
        <mxCell id="pGZNJNF9JH5jrCQHHoNG-37" value="保存用户信息" style="rounded=0;whiteSpace=wrap;html=1;shadow=0;comic=0;labelBackgroundColor=none;strokeWidth=2;fontFamily=宋体;fontSize=14;align=center;arcSize=50;fontStyle=1" parent="1c1d494c118603dd-4" vertex="1">
          <mxGeometry x="60" y="400" width="100" height="40" as="geometry" />
        </mxCell>
        <mxCell id="pGZNJNF9JH5jrCQHHoNG-42" value="更新用户Token" style="rounded=0;whiteSpace=wrap;html=1;shadow=0;comic=0;labelBackgroundColor=none;strokeWidth=2;fontFamily=宋体;fontSize=14;align=center;arcSize=50;fontStyle=1" parent="1c1d494c118603dd-4" vertex="1">
          <mxGeometry x="60" y="560" width="80" height="40" as="geometry" />
        </mxCell>
        <mxCell id="pGZNJNF9JH5jrCQHHoNG-23" style="edgeStyle=orthogonalEdgeStyle;rounded=0;orthogonalLoop=1;jettySize=auto;html=1;exitX=1;exitY=0.5;exitDx=0;exitDy=0;fontFamily=宋体;strokeWidth=2;fontSize=14;fontStyle=1" parent="1c1d494c118603dd-1" source="60571a20871a0731-8" target="pGZNJNF9JH5jrCQHHoNG-22" edge="1">
          <mxGeometry relative="1" as="geometry" />
        </mxCell>
        <mxCell id="pGZNJNF9JH5jrCQHHoNG-25" style="edgeStyle=orthogonalEdgeStyle;rounded=0;orthogonalLoop=1;jettySize=auto;html=1;exitX=0;exitY=0.5;exitDx=0;exitDy=0;entryX=1;entryY=0.5;entryDx=0;entryDy=0;fontFamily=宋体;strokeWidth=2;fontSize=14;fontStyle=1" parent="1c1d494c118603dd-1" source="pGZNJNF9JH5jrCQHHoNG-42" target="pGZNJNF9JH5jrCQHHoNG-24" edge="1">
          <mxGeometry relative="1" as="geometry" />
        </mxCell>
        <mxCell id="pGZNJNF9JH5jrCQHHoNG-36" style="edgeStyle=orthogonalEdgeStyle;rounded=0;orthogonalLoop=1;jettySize=auto;html=1;exitX=1;exitY=0.5;exitDx=0;exitDy=0;entryX=0;entryY=0.5;entryDx=0;entryDy=0;fontFamily=宋体;strokeWidth=2;fontSize=14;fontStyle=1" parent="1c1d494c118603dd-1" source="pGZNJNF9JH5jrCQHHoNG-30" target="pGZNJNF9JH5jrCQHHoNG-35" edge="1">
          <mxGeometry relative="1" as="geometry" />
        </mxCell>
        <mxCell id="pGZNJNF9JH5jrCQHHoNG-38" style="edgeStyle=orthogonalEdgeStyle;rounded=0;orthogonalLoop=1;jettySize=auto;html=1;exitX=0.5;exitY=1;exitDx=0;exitDy=0;entryX=0;entryY=0.25;entryDx=0;entryDy=0;fontFamily=宋体;strokeWidth=2;fontSize=14;fontStyle=1" parent="1c1d494c118603dd-1" source="pGZNJNF9JH5jrCQHHoNG-35" target="pGZNJNF9JH5jrCQHHoNG-37" edge="1">
          <mxGeometry relative="1" as="geometry" />
        </mxCell>
        <mxCell id="pGZNJNF9JH5jrCQHHoNG-43" style="edgeStyle=orthogonalEdgeStyle;rounded=0;orthogonalLoop=1;jettySize=auto;html=1;exitX=0.5;exitY=1;exitDx=0;exitDy=0;entryX=0.5;entryY=0;entryDx=0;entryDy=0;fontFamily=宋体;strokeWidth=2;fontSize=14;fontStyle=1" parent="1c1d494c118603dd-1" source="pGZNJNF9JH5jrCQHHoNG-22" target="pGZNJNF9JH5jrCQHHoNG-42" edge="1">
          <mxGeometry relative="1" as="geometry">
            <Array as="points">
              <mxPoint x="300" y="560" />
              <mxPoint x="500" y="560" />
            </Array>
          </mxGeometry>
        </mxCell>
        <mxCell id="pGZNJNF9JH5jrCQHHoNG-46" style="edgeStyle=orthogonalEdgeStyle;rounded=0;orthogonalLoop=1;jettySize=auto;html=1;exitX=1;exitY=0.5;exitDx=0;exitDy=0;entryX=1;entryY=0.5;entryDx=0;entryDy=0;fontFamily=宋体;strokeWidth=2;fontSize=14;fontStyle=1" parent="1c1d494c118603dd-1" source="pGZNJNF9JH5jrCQHHoNG-35" target="60571a20871a0731-5" edge="1">
          <mxGeometry relative="1" as="geometry">
            <Array as="points">
              <mxPoint x="580" y="380" />
              <mxPoint x="580" y="740" />
            </Array>
          </mxGeometry>
        </mxCell>
        <mxCell id="pGZNJNF9JH5jrCQHHoNG-53" style="edgeStyle=orthogonalEdgeStyle;rounded=0;orthogonalLoop=1;jettySize=auto;html=1;exitX=0;exitY=0.75;exitDx=0;exitDy=0;entryX=0.5;entryY=0;entryDx=0;entryDy=0;fontFamily=宋体;strokeWidth=2;fontSize=14;fontStyle=1" parent="1c1d494c118603dd-1" source="pGZNJNF9JH5jrCQHHoNG-37" target="60571a20871a0731-8" edge="1">
          <mxGeometry relative="1" as="geometry" />
        </mxCell>
        <mxCell id="pGZNJNF9JH5jrCQHHoNG-54" style="edgeStyle=orthogonalEdgeStyle;rounded=0;orthogonalLoop=1;jettySize=auto;html=1;exitX=1;exitY=0.5;exitDx=0;exitDy=0;entryX=1;entryY=0.5;entryDx=0;entryDy=0;fontFamily=宋体;strokeWidth=2;fontSize=14;fontStyle=1" parent="1c1d494c118603dd-1" source="pGZNJNF9JH5jrCQHHoNG-22" target="60571a20871a0731-5" edge="1">
          <mxGeometry relative="1" as="geometry">
            <Array as="points">
              <mxPoint x="560" y="500" />
              <mxPoint x="560" y="740" />
            </Array>
          </mxGeometry>
        </mxCell>
      </root>
    </mxGraphModel>
  </diagram>
  <diagram id="l_daZXzdjElVM7ueaFuc" name="数据采集">
    <mxGraphModel dx="1665" dy="1818" grid="1" gridSize="10" guides="1" tooltips="1" connect="1" arrows="1" fold="1" page="1" pageScale="1" pageWidth="827" pageHeight="1169" math="0" shadow="0">
      <root>
        <mxCell id="0" />
        <mxCell id="1" parent="0" />
        <mxCell id="2QaoAZKU1XfL4u6ynGiQ-1" value="数据采集" style="swimlane;html=1;childLayout=stackLayout;startSize=20;rounded=0;shadow=0;comic=0;labelBackgroundColor=none;strokeWidth=2;fontFamily=宋体;fontSize=16;align=center;" parent="1" vertex="1">
          <mxGeometry width="400" height="600" as="geometry" />
        </mxCell>
        <mxCell id="2QaoAZKU1XfL4u6ynGiQ-2" value="车辆" style="swimlane;html=1;startSize=20;fontSize=16;strokeWidth=2;fontFamily=宋体;" parent="2QaoAZKU1XfL4u6ynGiQ-1" vertex="1">
          <mxGeometry y="20" width="200" height="580" as="geometry" />
        </mxCell>
        <mxCell id="mVGk0gV2lalz-X6QXhFK-52" style="edgeStyle=orthogonalEdgeStyle;rounded=0;orthogonalLoop=1;jettySize=auto;html=1;exitX=0.5;exitY=1;exitDx=0;exitDy=0;entryX=0.5;entryY=0;entryDx=0;entryDy=0;strokeWidth=2;fontFamily=宋体;" parent="2QaoAZKU1XfL4u6ynGiQ-2" source="2QaoAZKU1XfL4u6ynGiQ-4" target="mVGk0gV2lalz-X6QXhFK-30" edge="1">
          <mxGeometry relative="1" as="geometry" />
        </mxCell>
        <mxCell id="2QaoAZKU1XfL4u6ynGiQ-4" value="" style="ellipse;whiteSpace=wrap;html=1;rounded=0;shadow=0;comic=0;labelBackgroundColor=none;strokeWidth=2;fillColor=#000000;fontFamily=宋体;fontSize=16;align=center;" parent="2QaoAZKU1XfL4u6ynGiQ-2" vertex="1">
          <mxGeometry x="80" y="40" width="40" height="40" as="geometry" />
        </mxCell>
        <mxCell id="2QaoAZKU1XfL4u6ynGiQ-11" value="" style="shape=mxgraph.bpmn.shape;html=1;verticalLabelPosition=bottom;labelBackgroundColor=#ffffff;verticalAlign=top;perimeter=ellipsePerimeter;outline=end;symbol=terminate;rounded=0;shadow=0;comic=0;strokeWidth=2;fontFamily=宋体;fontSize=16;align=center;" parent="2QaoAZKU1XfL4u6ynGiQ-2" vertex="1">
          <mxGeometry x="80" y="520" width="40" height="40" as="geometry" />
        </mxCell>
        <mxCell id="mVGk0gV2lalz-X6QXhFK-23" style="edgeStyle=orthogonalEdgeStyle;rounded=0;orthogonalLoop=1;jettySize=auto;html=1;exitX=0.5;exitY=1;exitDx=0;exitDy=0;entryX=0.5;entryY=0;entryDx=0;entryDy=0;strokeWidth=2;fontFamily=宋体;" parent="2QaoAZKU1XfL4u6ynGiQ-2" source="mVGk0gV2lalz-X6QXhFK-12" target="mVGk0gV2lalz-X6QXhFK-22" edge="1">
          <mxGeometry relative="1" as="geometry" />
        </mxCell>
        <mxCell id="mVGk0gV2lalz-X6QXhFK-12" value="任务区域" style="rhombus;whiteSpace=wrap;html=1;fontSize=16;strokeWidth=2;fontFamily=宋体;" parent="2QaoAZKU1XfL4u6ynGiQ-2" vertex="1">
          <mxGeometry x="40" y="270" width="120" height="60" as="geometry" />
        </mxCell>
        <mxCell id="mVGk0gV2lalz-X6QXhFK-25" style="edgeStyle=orthogonalEdgeStyle;rounded=0;orthogonalLoop=1;jettySize=auto;html=1;exitX=0.5;exitY=1;exitDx=0;exitDy=0;entryX=0.5;entryY=0;entryDx=0;entryDy=0;strokeWidth=2;fontFamily=宋体;" parent="2QaoAZKU1XfL4u6ynGiQ-2" source="mVGk0gV2lalz-X6QXhFK-22" target="mVGk0gV2lalz-X6QXhFK-24" edge="1">
          <mxGeometry relative="1" as="geometry" />
        </mxCell>
        <mxCell id="mVGk0gV2lalz-X6QXhFK-22" value="采集感知数据" style="rounded=0;whiteSpace=wrap;html=1;shadow=0;comic=0;labelBackgroundColor=none;strokeWidth=2;fontFamily=宋体;fontSize=16;align=center;arcSize=50;" parent="2QaoAZKU1XfL4u6ynGiQ-2" vertex="1">
          <mxGeometry x="60" y="360" width="80" height="40" as="geometry" />
        </mxCell>
        <mxCell id="mVGk0gV2lalz-X6QXhFK-24" value="使用公钥加密数据" style="rounded=0;whiteSpace=wrap;html=1;shadow=0;comic=0;labelBackgroundColor=none;strokeWidth=2;fontFamily=宋体;fontSize=16;align=center;arcSize=50;" parent="2QaoAZKU1XfL4u6ynGiQ-2" vertex="1">
          <mxGeometry x="60" y="440" width="80" height="40" as="geometry" />
        </mxCell>
        <mxCell id="mVGk0gV2lalz-X6QXhFK-30" value="查看任务" style="rounded=0;whiteSpace=wrap;html=1;shadow=0;comic=0;labelBackgroundColor=none;strokeWidth=2;fontFamily=宋体;fontSize=16;align=center;arcSize=50;" parent="2QaoAZKU1XfL4u6ynGiQ-2" vertex="1">
          <mxGeometry x="60" y="120" width="80" height="40" as="geometry" />
        </mxCell>
        <mxCell id="Q_k_QSd761RBsk-axaL2-1" value="是" style="text;html=1;align=center;verticalAlign=middle;resizable=0;points=[];autosize=1;strokeColor=none;fillColor=none;fontSize=16;strokeWidth=2;fontFamily=宋体;" parent="2QaoAZKU1XfL4u6ynGiQ-2" vertex="1">
          <mxGeometry x="100" y="330" width="40" height="30" as="geometry" />
        </mxCell>
        <mxCell id="Q_k_QSd761RBsk-axaL2-5" style="edgeStyle=orthogonalEdgeStyle;rounded=0;orthogonalLoop=1;jettySize=auto;html=1;exitX=0;exitY=0.5;exitDx=0;exitDy=0;entryX=0.5;entryY=0;entryDx=0;entryDy=0;strokeWidth=2;fontFamily=宋体;" parent="2QaoAZKU1XfL4u6ynGiQ-2" source="mVGk0gV2lalz-X6QXhFK-12" target="mVGk0gV2lalz-X6QXhFK-12" edge="1">
          <mxGeometry relative="1" as="geometry">
            <Array as="points">
              <mxPoint x="20" y="300" />
              <mxPoint x="20" y="250" />
              <mxPoint x="100" y="250" />
            </Array>
          </mxGeometry>
        </mxCell>
        <mxCell id="Q_k_QSd761RBsk-axaL2-3" value="否" style="text;html=1;align=center;verticalAlign=middle;resizable=0;points=[];autosize=1;strokeColor=none;fillColor=none;fontSize=16;strokeWidth=2;fontFamily=宋体;" parent="2QaoAZKU1XfL4u6ynGiQ-2" vertex="1">
          <mxGeometry x="20" y="250" width="40" height="30" as="geometry" />
        </mxCell>
        <mxCell id="2QaoAZKU1XfL4u6ynGiQ-23" value="任务管理系统" style="swimlane;html=1;startSize=20;fontSize=16;strokeWidth=2;fontFamily=宋体;" parent="2QaoAZKU1XfL4u6ynGiQ-1" vertex="1">
          <mxGeometry x="200" y="20" width="200" height="580" as="geometry" />
        </mxCell>
        <mxCell id="mVGk0gV2lalz-X6QXhFK-26" value="上传加密感知数据" style="rounded=0;whiteSpace=wrap;html=1;shadow=0;comic=0;labelBackgroundColor=none;strokeWidth=2;fontFamily=宋体;fontSize=16;align=center;arcSize=50;" parent="2QaoAZKU1XfL4u6ynGiQ-23" vertex="1">
          <mxGeometry x="60" y="440" width="80" height="40" as="geometry" />
        </mxCell>
        <mxCell id="2QaoAZKU1XfL4u6ynGiQ-16" value="领取任务" style="rounded=0;whiteSpace=wrap;html=1;shadow=0;comic=0;labelBackgroundColor=none;strokeWidth=2;fontFamily=宋体;fontSize=16;align=center;arcSize=50;" parent="2QaoAZKU1XfL4u6ynGiQ-23" vertex="1">
          <mxGeometry x="-140" y="200" width="80" height="40" as="geometry" />
        </mxCell>
        <mxCell id="mVGk0gV2lalz-X6QXhFK-1" value="关联任务车辆" style="rounded=0;whiteSpace=wrap;html=1;shadow=0;comic=0;labelBackgroundColor=none;strokeWidth=2;fontFamily=宋体;fontSize=16;align=center;arcSize=50;" parent="2QaoAZKU1XfL4u6ynGiQ-23" vertex="1">
          <mxGeometry x="40" y="200" width="120" height="40" as="geometry" />
        </mxCell>
        <mxCell id="mVGk0gV2lalz-X6QXhFK-6" style="edgeStyle=orthogonalEdgeStyle;rounded=0;orthogonalLoop=1;jettySize=auto;html=1;exitX=1;exitY=0.5;exitDx=0;exitDy=0;entryX=0;entryY=0.5;entryDx=0;entryDy=0;fontSize=16;strokeWidth=2;fontFamily=宋体;" parent="2QaoAZKU1XfL4u6ynGiQ-23" source="2QaoAZKU1XfL4u6ynGiQ-16" target="mVGk0gV2lalz-X6QXhFK-1" edge="1">
          <mxGeometry relative="1" as="geometry" />
        </mxCell>
        <mxCell id="mVGk0gV2lalz-X6QXhFK-54" style="edgeStyle=orthogonalEdgeStyle;rounded=0;orthogonalLoop=1;jettySize=auto;html=1;exitX=0.5;exitY=1;exitDx=0;exitDy=0;entryX=0.5;entryY=0;entryDx=0;entryDy=0;strokeWidth=2;fontFamily=宋体;" parent="2QaoAZKU1XfL4u6ynGiQ-23" source="mVGk0gV2lalz-X6QXhFK-51" target="2QaoAZKU1XfL4u6ynGiQ-16" edge="1">
          <mxGeometry relative="1" as="geometry" />
        </mxCell>
        <mxCell id="mVGk0gV2lalz-X6QXhFK-51" value="获取任务详情" style="rounded=0;whiteSpace=wrap;html=1;shadow=0;comic=0;labelBackgroundColor=none;strokeWidth=2;fontFamily=宋体;fontSize=16;align=center;arcSize=50;" parent="2QaoAZKU1XfL4u6ynGiQ-23" vertex="1">
          <mxGeometry x="40" y="120" width="120" height="40" as="geometry" />
        </mxCell>
        <mxCell id="mVGk0gV2lalz-X6QXhFK-27" style="edgeStyle=orthogonalEdgeStyle;rounded=0;orthogonalLoop=1;jettySize=auto;html=1;exitX=1;exitY=0.5;exitDx=0;exitDy=0;entryX=0;entryY=0.5;entryDx=0;entryDy=0;strokeWidth=2;fontFamily=宋体;" parent="2QaoAZKU1XfL4u6ynGiQ-1" source="mVGk0gV2lalz-X6QXhFK-24" target="mVGk0gV2lalz-X6QXhFK-26" edge="1">
          <mxGeometry relative="1" as="geometry" />
        </mxCell>
        <mxCell id="mVGk0gV2lalz-X6QXhFK-53" style="edgeStyle=orthogonalEdgeStyle;rounded=0;orthogonalLoop=1;jettySize=auto;html=1;exitX=1;exitY=0.5;exitDx=0;exitDy=0;entryX=0;entryY=0.5;entryDx=0;entryDy=0;strokeWidth=2;fontFamily=宋体;" parent="2QaoAZKU1XfL4u6ynGiQ-1" source="mVGk0gV2lalz-X6QXhFK-30" target="mVGk0gV2lalz-X6QXhFK-51" edge="1">
          <mxGeometry relative="1" as="geometry" />
        </mxCell>
        <mxCell id="mVGk0gV2lalz-X6QXhFK-29" style="edgeStyle=orthogonalEdgeStyle;rounded=0;orthogonalLoop=1;jettySize=auto;html=1;exitX=0.5;exitY=1;exitDx=0;exitDy=0;entryX=1;entryY=0.5;entryDx=0;entryDy=0;strokeWidth=2;fontFamily=宋体;" parent="2QaoAZKU1XfL4u6ynGiQ-1" source="mVGk0gV2lalz-X6QXhFK-1" target="mVGk0gV2lalz-X6QXhFK-12" edge="1">
          <mxGeometry relative="1" as="geometry">
            <mxPoint x="300" y="525" as="targetPoint" />
          </mxGeometry>
        </mxCell>
        <mxCell id="Q_k_QSd761RBsk-axaL2-4" style="edgeStyle=orthogonalEdgeStyle;rounded=0;orthogonalLoop=1;jettySize=auto;html=1;exitX=0.5;exitY=1;exitDx=0;exitDy=0;entryX=1;entryY=0.5;entryDx=0;entryDy=0;strokeWidth=2;fontFamily=宋体;" parent="2QaoAZKU1XfL4u6ynGiQ-1" source="mVGk0gV2lalz-X6QXhFK-26" target="2QaoAZKU1XfL4u6ynGiQ-11" edge="1">
          <mxGeometry relative="1" as="geometry" />
        </mxCell>
      </root>
    </mxGraphModel>
  </diagram>
  <diagram id="lgxSBMAvDj6Ztzp7Idtc" name="数据聚合">
    <mxGraphModel dx="1665" dy="1818" grid="1" gridSize="10" guides="1" tooltips="1" connect="1" arrows="1" fold="1" page="1" pageScale="1" pageWidth="827" pageHeight="1169" math="0" shadow="0">
      <root>
        <mxCell id="0" />
        <mxCell id="1" parent="0" />
        <mxCell id="52viiZ0wnNbCiff5R0dz-1" value="数据聚合" style="swimlane;html=1;childLayout=stackLayout;startSize=20;rounded=0;shadow=0;comic=0;labelBackgroundColor=none;strokeWidth=2;fontFamily=宋体;fontSize=16;align=center;" parent="1" vertex="1">
          <mxGeometry width="400" height="680" as="geometry" />
        </mxCell>
        <mxCell id="52viiZ0wnNbCiff5R0dz-2" value="任务请求者" style="swimlane;html=1;startSize=20;fontSize=16;strokeWidth=2;fontFamily=宋体;" parent="52viiZ0wnNbCiff5R0dz-1" vertex="1">
          <mxGeometry y="20" width="200" height="660" as="geometry" />
        </mxCell>
        <mxCell id="52viiZ0wnNbCiff5R0dz-3" style="edgeStyle=orthogonalEdgeStyle;rounded=0;orthogonalLoop=1;jettySize=auto;html=1;exitX=0.5;exitY=1;exitDx=0;exitDy=0;entryX=0.5;entryY=0;entryDx=0;entryDy=0;strokeWidth=2;fontFamily=宋体;" parent="52viiZ0wnNbCiff5R0dz-2" source="52viiZ0wnNbCiff5R0dz-4" target="52viiZ0wnNbCiff5R0dz-11" edge="1">
          <mxGeometry relative="1" as="geometry" />
        </mxCell>
        <mxCell id="52viiZ0wnNbCiff5R0dz-4" value="" style="ellipse;whiteSpace=wrap;html=1;rounded=0;shadow=0;comic=0;labelBackgroundColor=none;strokeWidth=2;fillColor=#000000;fontFamily=宋体;fontSize=16;align=center;" parent="52viiZ0wnNbCiff5R0dz-2" vertex="1">
          <mxGeometry x="80" y="40" width="40" height="40" as="geometry" />
        </mxCell>
        <mxCell id="52viiZ0wnNbCiff5R0dz-5" value="" style="shape=mxgraph.bpmn.shape;html=1;verticalLabelPosition=bottom;labelBackgroundColor=#ffffff;verticalAlign=top;perimeter=ellipsePerimeter;outline=end;symbol=terminate;rounded=0;shadow=0;comic=0;strokeWidth=2;fontFamily=宋体;fontSize=16;align=center;" parent="52viiZ0wnNbCiff5R0dz-2" vertex="1">
          <mxGeometry x="80" y="600" width="40" height="40" as="geometry" />
        </mxCell>
        <mxCell id="52viiZ0wnNbCiff5R0dz-26" style="edgeStyle=orthogonalEdgeStyle;rounded=0;orthogonalLoop=1;jettySize=auto;html=1;exitX=0.5;exitY=1;exitDx=0;exitDy=0;strokeWidth=2;fontFamily=宋体;" parent="52viiZ0wnNbCiff5R0dz-2" source="52viiZ0wnNbCiff5R0dz-7" target="52viiZ0wnNbCiff5R0dz-17" edge="1">
          <mxGeometry relative="1" as="geometry" />
        </mxCell>
        <mxCell id="52viiZ0wnNbCiff5R0dz-37" style="edgeStyle=orthogonalEdgeStyle;rounded=0;orthogonalLoop=1;jettySize=auto;html=1;exitX=0;exitY=0.5;exitDx=0;exitDy=0;entryX=0;entryY=0.5;entryDx=0;entryDy=0;strokeWidth=2;fontFamily=宋体;" parent="52viiZ0wnNbCiff5R0dz-2" source="52viiZ0wnNbCiff5R0dz-7" target="52viiZ0wnNbCiff5R0dz-5" edge="1">
          <mxGeometry relative="1" as="geometry" />
        </mxCell>
        <mxCell id="52viiZ0wnNbCiff5R0dz-7" value="任务结束" style="rhombus;whiteSpace=wrap;html=1;fontSize=16;strokeWidth=2;fontFamily=宋体;" parent="52viiZ0wnNbCiff5R0dz-2" vertex="1">
          <mxGeometry x="40" y="190" width="120" height="60" as="geometry" />
        </mxCell>
        <mxCell id="52viiZ0wnNbCiff5R0dz-34" style="edgeStyle=orthogonalEdgeStyle;rounded=0;orthogonalLoop=1;jettySize=auto;html=1;exitX=0.5;exitY=1;exitDx=0;exitDy=0;entryX=0.5;entryY=0;entryDx=0;entryDy=0;strokeWidth=2;fontFamily=宋体;" parent="52viiZ0wnNbCiff5R0dz-2" source="52viiZ0wnNbCiff5R0dz-10" target="52viiZ0wnNbCiff5R0dz-32" edge="1">
          <mxGeometry relative="1" as="geometry" />
        </mxCell>
        <mxCell id="52viiZ0wnNbCiff5R0dz-10" value="查看加密&lt;br&gt;聚合&lt;span style=&quot;background-color: transparent; color: light-dark(rgb(0, 0, 0), rgb(255, 255, 255));&quot;&gt;数据&lt;/span&gt;" style="rounded=0;whiteSpace=wrap;html=1;shadow=0;comic=0;labelBackgroundColor=none;strokeWidth=2;fontFamily=宋体;fontSize=16;align=center;arcSize=50;" parent="52viiZ0wnNbCiff5R0dz-2" vertex="1">
          <mxGeometry x="40" y="360" width="120" height="40" as="geometry" />
        </mxCell>
        <mxCell id="52viiZ0wnNbCiff5R0dz-11" value="查看任务" style="rounded=0;whiteSpace=wrap;html=1;shadow=0;comic=0;labelBackgroundColor=none;strokeWidth=2;fontFamily=宋体;fontSize=16;align=center;arcSize=50;" parent="52viiZ0wnNbCiff5R0dz-2" vertex="1">
          <mxGeometry x="60" y="120" width="80" height="40" as="geometry" />
        </mxCell>
        <mxCell id="52viiZ0wnNbCiff5R0dz-12" value="是" style="text;html=1;align=center;verticalAlign=middle;resizable=0;points=[];autosize=1;strokeColor=none;fillColor=none;fontSize=16;strokeWidth=2;fontFamily=宋体;" parent="52viiZ0wnNbCiff5R0dz-2" vertex="1">
          <mxGeometry x="100" y="250" width="40" height="30" as="geometry" />
        </mxCell>
        <mxCell id="52viiZ0wnNbCiff5R0dz-14" value="否" style="text;html=1;align=center;verticalAlign=middle;resizable=0;points=[];autosize=1;strokeColor=none;fillColor=none;fontSize=16;strokeWidth=2;fontFamily=宋体;" parent="52viiZ0wnNbCiff5R0dz-2" vertex="1">
          <mxGeometry x="20" y="220" width="40" height="30" as="geometry" />
        </mxCell>
        <mxCell id="52viiZ0wnNbCiff5R0dz-17" value="开始聚合数据" style="rounded=0;whiteSpace=wrap;html=1;shadow=0;comic=0;labelBackgroundColor=none;strokeWidth=2;fontFamily=宋体;fontSize=16;align=center;arcSize=50;" parent="52viiZ0wnNbCiff5R0dz-2" vertex="1">
          <mxGeometry x="40" y="280" width="120" height="40" as="geometry" />
        </mxCell>
        <mxCell id="52viiZ0wnNbCiff5R0dz-35" style="edgeStyle=orthogonalEdgeStyle;rounded=0;orthogonalLoop=1;jettySize=auto;html=1;exitX=0.5;exitY=1;exitDx=0;exitDy=0;entryX=0.5;entryY=0;entryDx=0;entryDy=0;strokeWidth=2;fontFamily=宋体;" parent="52viiZ0wnNbCiff5R0dz-2" source="52viiZ0wnNbCiff5R0dz-32" target="52viiZ0wnNbCiff5R0dz-33" edge="1">
          <mxGeometry relative="1" as="geometry" />
        </mxCell>
        <mxCell id="52viiZ0wnNbCiff5R0dz-32" value="使用私钥解密" style="rounded=0;whiteSpace=wrap;html=1;shadow=0;comic=0;labelBackgroundColor=none;strokeWidth=2;fontFamily=宋体;fontSize=16;align=center;arcSize=50;" parent="52viiZ0wnNbCiff5R0dz-2" vertex="1">
          <mxGeometry x="40" y="440" width="120" height="40" as="geometry" />
        </mxCell>
        <mxCell id="52viiZ0wnNbCiff5R0dz-36" style="edgeStyle=orthogonalEdgeStyle;rounded=0;orthogonalLoop=1;jettySize=auto;html=1;exitX=0.5;exitY=1;exitDx=0;exitDy=0;entryX=0.5;entryY=0;entryDx=0;entryDy=0;strokeWidth=2;fontFamily=宋体;" parent="52viiZ0wnNbCiff5R0dz-2" source="52viiZ0wnNbCiff5R0dz-33" target="52viiZ0wnNbCiff5R0dz-5" edge="1">
          <mxGeometry relative="1" as="geometry" />
        </mxCell>
        <mxCell id="52viiZ0wnNbCiff5R0dz-33" value="查看解密&lt;br&gt;聚合&lt;span style=&quot;background-color: transparent; color: light-dark(rgb(0, 0, 0), rgb(255, 255, 255));&quot;&gt;数据&lt;/span&gt;" style="rounded=0;whiteSpace=wrap;html=1;shadow=0;comic=0;labelBackgroundColor=none;strokeWidth=2;fontFamily=宋体;fontSize=16;align=center;arcSize=50;" parent="52viiZ0wnNbCiff5R0dz-2" vertex="1">
          <mxGeometry x="40" y="520" width="120" height="40" as="geometry" />
        </mxCell>
        <mxCell id="52viiZ0wnNbCiff5R0dz-15" value="任务管理系统" style="swimlane;html=1;startSize=20;fontSize=16;strokeWidth=2;fontFamily=宋体;" parent="52viiZ0wnNbCiff5R0dz-1" vertex="1">
          <mxGeometry x="200" y="20" width="200" height="660" as="geometry" />
        </mxCell>
        <mxCell id="52viiZ0wnNbCiff5R0dz-18" value="聚合车辆采集&lt;div&gt;加密数据&lt;/div&gt;" style="rounded=0;whiteSpace=wrap;html=1;shadow=0;comic=0;labelBackgroundColor=none;strokeWidth=2;fontFamily=宋体;fontSize=16;align=center;arcSize=50;" parent="52viiZ0wnNbCiff5R0dz-15" vertex="1">
          <mxGeometry x="40" y="280" width="120" height="40" as="geometry" />
        </mxCell>
        <mxCell id="52viiZ0wnNbCiff5R0dz-21" value="获取任务详情" style="rounded=0;whiteSpace=wrap;html=1;shadow=0;comic=0;labelBackgroundColor=none;strokeWidth=2;fontFamily=宋体;fontSize=16;align=center;arcSize=50;" parent="52viiZ0wnNbCiff5R0dz-15" vertex="1">
          <mxGeometry x="40" y="120" width="120" height="40" as="geometry" />
        </mxCell>
        <mxCell id="52viiZ0wnNbCiff5R0dz-23" style="edgeStyle=orthogonalEdgeStyle;rounded=0;orthogonalLoop=1;jettySize=auto;html=1;exitX=1;exitY=0.5;exitDx=0;exitDy=0;entryX=0;entryY=0.5;entryDx=0;entryDy=0;strokeWidth=2;fontFamily=宋体;" parent="52viiZ0wnNbCiff5R0dz-1" source="52viiZ0wnNbCiff5R0dz-11" target="52viiZ0wnNbCiff5R0dz-21" edge="1">
          <mxGeometry relative="1" as="geometry" />
        </mxCell>
        <mxCell id="52viiZ0wnNbCiff5R0dz-20" style="edgeStyle=orthogonalEdgeStyle;rounded=0;orthogonalLoop=1;jettySize=auto;html=1;exitX=0.5;exitY=1;exitDx=0;exitDy=0;entryX=1;entryY=0.5;entryDx=0;entryDy=0;strokeWidth=2;fontFamily=宋体;" parent="52viiZ0wnNbCiff5R0dz-1" source="52viiZ0wnNbCiff5R0dz-21" target="52viiZ0wnNbCiff5R0dz-7" edge="1">
          <mxGeometry relative="1" as="geometry">
            <Array as="points">
              <mxPoint x="300" y="240" />
            </Array>
          </mxGeometry>
        </mxCell>
        <mxCell id="52viiZ0wnNbCiff5R0dz-19" style="edgeStyle=orthogonalEdgeStyle;rounded=0;orthogonalLoop=1;jettySize=auto;html=1;exitX=1;exitY=0.5;exitDx=0;exitDy=0;entryX=0;entryY=0.5;entryDx=0;entryDy=0;fontSize=16;strokeWidth=2;fontFamily=宋体;" parent="52viiZ0wnNbCiff5R0dz-1" source="52viiZ0wnNbCiff5R0dz-17" target="52viiZ0wnNbCiff5R0dz-18" edge="1">
          <mxGeometry relative="1" as="geometry" />
        </mxCell>
        <mxCell id="52viiZ0wnNbCiff5R0dz-27" style="edgeStyle=orthogonalEdgeStyle;rounded=0;orthogonalLoop=1;jettySize=auto;html=1;exitX=0.5;exitY=1;exitDx=0;exitDy=0;entryX=1;entryY=0.5;entryDx=0;entryDy=0;strokeWidth=2;fontFamily=宋体;" parent="52viiZ0wnNbCiff5R0dz-1" source="52viiZ0wnNbCiff5R0dz-18" target="52viiZ0wnNbCiff5R0dz-10" edge="1">
          <mxGeometry relative="1" as="geometry" />
        </mxCell>
      </root>
    </mxGraphModel>
  </diagram>
  <diagram id="Rs8N8Xs7Zc7QKX93VMpK" name="顶层数据流图">
    <mxGraphModel dx="2066" dy="1107" grid="1" gridSize="10" guides="1" tooltips="1" connect="1" arrows="1" fold="1" page="1" pageScale="1" pageWidth="827" pageHeight="1169" math="0" shadow="0">
      <root>
        <mxCell id="0" />
        <mxCell id="1" parent="0" />
        <mxCell id="UWusbw3Yiy6qROuMLpjW-1" style="edgeStyle=orthogonalEdgeStyle;rounded=0;orthogonalLoop=1;jettySize=auto;html=1;exitX=1;exitY=0.25;exitDx=0;exitDy=0;entryX=0;entryY=0.25;entryDx=0;entryDy=0;startArrow=classic;startFill=1;fontSize=16;" edge="1" parent="1" source="OCqpcxl0c68qnd_JzM5t-1" target="OCqpcxl0c68qnd_JzM5t-3">
          <mxGeometry relative="1" as="geometry" />
        </mxCell>
        <mxCell id="OCqpcxl0c68qnd_JzM5t-1" value="任务请求者" style="rounded=0;whiteSpace=wrap;html=1;fontSize=16;" vertex="1" parent="1">
          <mxGeometry x="40" y="40" width="120" height="80" as="geometry" />
        </mxCell>
        <mxCell id="UWusbw3Yiy6qROuMLpjW-3" style="edgeStyle=orthogonalEdgeStyle;rounded=0;orthogonalLoop=1;jettySize=auto;html=1;exitX=0;exitY=0.75;exitDx=0;exitDy=0;entryX=1;entryY=0.75;entryDx=0;entryDy=0;fontSize=16;" edge="1" parent="1" source="OCqpcxl0c68qnd_JzM5t-2" target="OCqpcxl0c68qnd_JzM5t-3">
          <mxGeometry relative="1" as="geometry" />
        </mxCell>
        <mxCell id="OCqpcxl0c68qnd_JzM5t-2" value="车辆" style="rounded=0;whiteSpace=wrap;html=1;fontSize=16;" vertex="1" parent="1">
          <mxGeometry x="520" y="40" width="120" height="80" as="geometry" />
        </mxCell>
        <mxCell id="UWusbw3Yiy6qROuMLpjW-2" style="edgeStyle=orthogonalEdgeStyle;rounded=0;orthogonalLoop=1;jettySize=auto;html=1;exitX=1;exitY=0.25;exitDx=0;exitDy=0;entryX=0;entryY=0.25;entryDx=0;entryDy=0;fontSize=16;" edge="1" parent="1" source="OCqpcxl0c68qnd_JzM5t-3" target="OCqpcxl0c68qnd_JzM5t-2">
          <mxGeometry relative="1" as="geometry" />
        </mxCell>
        <mxCell id="UWusbw3Yiy6qROuMLpjW-4" style="edgeStyle=orthogonalEdgeStyle;rounded=0;orthogonalLoop=1;jettySize=auto;html=1;exitX=0;exitY=0.75;exitDx=0;exitDy=0;entryX=1;entryY=0.75;entryDx=0;entryDy=0;fontSize=16;" edge="1" parent="1" source="OCqpcxl0c68qnd_JzM5t-3" target="OCqpcxl0c68qnd_JzM5t-1">
          <mxGeometry relative="1" as="geometry" />
        </mxCell>
        <mxCell id="OCqpcxl0c68qnd_JzM5t-3" value="智能车联&lt;div&gt;数据聚合系统&lt;/div&gt;" style="rounded=1;whiteSpace=wrap;html=1;fontSize=16;" vertex="1" parent="1">
          <mxGeometry x="280" y="40" width="120" height="80" as="geometry" />
        </mxCell>
        <mxCell id="UWusbw3Yiy6qROuMLpjW-5" value="任务信息" style="text;html=1;align=center;verticalAlign=middle;whiteSpace=wrap;rounded=0;fontSize=16;" vertex="1" parent="1">
          <mxGeometry x="160" y="30" width="120" height="30" as="geometry" />
        </mxCell>
        <mxCell id="UWusbw3Yiy6qROuMLpjW-6" value="任务信息" style="text;html=1;align=center;verticalAlign=middle;whiteSpace=wrap;rounded=0;fontSize=16;" vertex="1" parent="1">
          <mxGeometry x="400" y="30" width="120" height="30" as="geometry" />
        </mxCell>
        <mxCell id="UWusbw3Yiy6qROuMLpjW-7" value="感知数据" style="text;html=1;align=center;verticalAlign=middle;whiteSpace=wrap;rounded=0;fontSize=16;" vertex="1" parent="1">
          <mxGeometry x="400" y="100" width="120" height="30" as="geometry" />
        </mxCell>
        <mxCell id="UWusbw3Yiy6qROuMLpjW-8" value="聚合感知数据" style="text;html=1;align=center;verticalAlign=middle;whiteSpace=wrap;rounded=0;fontSize=16;" vertex="1" parent="1">
          <mxGeometry x="160" y="100" width="120" height="30" as="geometry" />
        </mxCell>
      </root>
    </mxGraphModel>
  </diagram>
  <diagram id="KHZTCYakE8T4dBroXK5s" name="0层数据流图">
    <mxGraphModel dx="2066" dy="1107" grid="1" gridSize="10" guides="1" tooltips="1" connect="1" arrows="1" fold="1" page="1" pageScale="1" pageWidth="827" pageHeight="1169" math="0" shadow="0">
      <root>
        <mxCell id="0" />
        <mxCell id="1" parent="0" />
        <mxCell id="_nztfKf8AGVUghUNrm0E-1" style="edgeStyle=orthogonalEdgeStyle;rounded=0;orthogonalLoop=1;jettySize=auto;html=1;exitX=1;exitY=0.25;exitDx=0;exitDy=0;entryX=0;entryY=0.25;entryDx=0;entryDy=0;startArrow=classic;startFill=1;" edge="1" parent="1" source="_nztfKf8AGVUghUNrm0E-4" target="_nztfKf8AGVUghUNrm0E-8">
          <mxGeometry relative="1" as="geometry">
            <Array as="points">
              <mxPoint x="220" y="180" />
              <mxPoint x="220" y="180" />
            </Array>
          </mxGeometry>
        </mxCell>
        <mxCell id="_nztfKf8AGVUghUNrm0E-2" style="edgeStyle=orthogonalEdgeStyle;rounded=0;orthogonalLoop=1;jettySize=auto;html=1;exitX=0.25;exitY=1;exitDx=0;exitDy=0;entryX=0;entryY=0.75;entryDx=0;entryDy=0;startArrow=classic;startFill=1;" edge="1" parent="1" source="_nztfKf8AGVUghUNrm0E-4" target="_nztfKf8AGVUghUNrm0E-18">
          <mxGeometry relative="1" as="geometry" />
        </mxCell>
        <mxCell id="_nztfKf8AGVUghUNrm0E-3" style="edgeStyle=orthogonalEdgeStyle;rounded=0;orthogonalLoop=1;jettySize=auto;html=1;exitX=0.5;exitY=1;exitDx=0;exitDy=0;entryX=0;entryY=0.5;entryDx=0;entryDy=0;" edge="1" parent="1" source="_nztfKf8AGVUghUNrm0E-4" target="_nztfKf8AGVUghUNrm0E-18">
          <mxGeometry relative="1" as="geometry" />
        </mxCell>
        <mxCell id="_nztfKf8AGVUghUNrm0E-4" value="任务请求者" style="rounded=0;whiteSpace=wrap;html=1;fontSize=16;" vertex="1" parent="1">
          <mxGeometry y="160" width="120" height="80" as="geometry" />
        </mxCell>
        <mxCell id="_nztfKf8AGVUghUNrm0E-5" style="edgeStyle=orthogonalEdgeStyle;rounded=0;orthogonalLoop=1;jettySize=auto;html=1;exitX=1;exitY=0.75;exitDx=0;exitDy=0;entryX=0;entryY=0.75;entryDx=0;entryDy=0;" edge="1" parent="1" source="_nztfKf8AGVUghUNrm0E-8" target="_nztfKf8AGVUghUNrm0E-11">
          <mxGeometry relative="1" as="geometry" />
        </mxCell>
        <mxCell id="_nztfKf8AGVUghUNrm0E-6" style="edgeStyle=orthogonalEdgeStyle;rounded=0;orthogonalLoop=1;jettySize=auto;html=1;exitX=0.75;exitY=0;exitDx=0;exitDy=0;entryX=0;entryY=0.5;entryDx=0;entryDy=0;startArrow=classic;startFill=1;" edge="1" parent="1" source="_nztfKf8AGVUghUNrm0E-8" target="_nztfKf8AGVUghUNrm0E-25">
          <mxGeometry relative="1" as="geometry" />
        </mxCell>
        <mxCell id="_nztfKf8AGVUghUNrm0E-7" style="edgeStyle=orthogonalEdgeStyle;rounded=0;orthogonalLoop=1;jettySize=auto;html=1;exitX=0;exitY=0.75;exitDx=0;exitDy=0;entryX=1;entryY=0.75;entryDx=0;entryDy=0;" edge="1" parent="1" source="_nztfKf8AGVUghUNrm0E-8" target="_nztfKf8AGVUghUNrm0E-4">
          <mxGeometry relative="1" as="geometry" />
        </mxCell>
        <mxCell id="_nztfKf8AGVUghUNrm0E-8" value="任务管理&lt;div&gt;子系统&lt;/div&gt;" style="rounded=1;whiteSpace=wrap;html=1;fontSize=16;" vertex="1" parent="1">
          <mxGeometry x="280" y="160" width="120" height="80" as="geometry" />
        </mxCell>
        <mxCell id="_nztfKf8AGVUghUNrm0E-9" style="edgeStyle=orthogonalEdgeStyle;rounded=0;orthogonalLoop=1;jettySize=auto;html=1;exitX=0.5;exitY=1;exitDx=0;exitDy=0;entryX=1;entryY=0.75;entryDx=0;entryDy=0;" edge="1" parent="1" source="_nztfKf8AGVUghUNrm0E-11" target="_nztfKf8AGVUghUNrm0E-18">
          <mxGeometry relative="1" as="geometry" />
        </mxCell>
        <mxCell id="_nztfKf8AGVUghUNrm0E-10" style="edgeStyle=orthogonalEdgeStyle;rounded=0;orthogonalLoop=1;jettySize=auto;html=1;exitX=0;exitY=0.25;exitDx=0;exitDy=0;entryX=1;entryY=0.25;entryDx=0;entryDy=0;" edge="1" parent="1" source="_nztfKf8AGVUghUNrm0E-11" target="_nztfKf8AGVUghUNrm0E-8">
          <mxGeometry relative="1" as="geometry" />
        </mxCell>
        <mxCell id="_nztfKf8AGVUghUNrm0E-11" value="车辆" style="rounded=0;whiteSpace=wrap;html=1;fontSize=16;" vertex="1" parent="1">
          <mxGeometry x="560" y="160" width="120" height="80" as="geometry" />
        </mxCell>
        <mxCell id="_nztfKf8AGVUghUNrm0E-12" value="密钥" style="text;html=1;align=center;verticalAlign=middle;whiteSpace=wrap;rounded=0;fontSize=16;textDirection=vertical-lr;" vertex="1" parent="1">
          <mxGeometry x="340" y="420" width="30" height="40" as="geometry" />
        </mxCell>
        <mxCell id="_nztfKf8AGVUghUNrm0E-13" value="任务信息" style="text;html=1;align=center;verticalAlign=middle;whiteSpace=wrap;rounded=0;fontSize=16;" vertex="1" parent="1">
          <mxGeometry x="120" y="150" width="160" height="30" as="geometry" />
        </mxCell>
        <mxCell id="_nztfKf8AGVUghUNrm0E-14" style="edgeStyle=orthogonalEdgeStyle;rounded=0;orthogonalLoop=1;jettySize=auto;html=1;exitX=0.75;exitY=1;exitDx=0;exitDy=0;entryX=0.25;entryY=0;entryDx=0;entryDy=0;startArrow=classic;startFill=1;" edge="1" parent="1" source="_nztfKf8AGVUghUNrm0E-15" target="_nztfKf8AGVUghUNrm0E-8">
          <mxGeometry relative="1" as="geometry" />
        </mxCell>
        <mxCell id="_nztfKf8AGVUghUNrm0E-15" value="任务表" style="html=1;dashed=0;whiteSpace=wrap;shape=partialRectangle;right=0;fontSize=16;" vertex="1" parent="1">
          <mxGeometry x="220" y="40" width="120" height="40" as="geometry" />
        </mxCell>
        <mxCell id="_nztfKf8AGVUghUNrm0E-16" style="edgeStyle=orthogonalEdgeStyle;rounded=0;orthogonalLoop=1;jettySize=auto;html=1;exitX=1;exitY=0.25;exitDx=0;exitDy=0;entryX=0.25;entryY=1;entryDx=0;entryDy=0;" edge="1" parent="1" source="_nztfKf8AGVUghUNrm0E-18" target="_nztfKf8AGVUghUNrm0E-11">
          <mxGeometry relative="1" as="geometry" />
        </mxCell>
        <mxCell id="_nztfKf8AGVUghUNrm0E-17" style="edgeStyle=orthogonalEdgeStyle;rounded=0;orthogonalLoop=1;jettySize=auto;html=1;exitX=0;exitY=0.25;exitDx=0;exitDy=0;entryX=0.75;entryY=1;entryDx=0;entryDy=0;" edge="1" parent="1" source="_nztfKf8AGVUghUNrm0E-18" target="_nztfKf8AGVUghUNrm0E-4">
          <mxGeometry relative="1" as="geometry" />
        </mxCell>
        <mxCell id="_nztfKf8AGVUghUNrm0E-18" value="密钥管理&lt;div&gt;子系统&lt;/div&gt;" style="rounded=1;whiteSpace=wrap;html=1;fontSize=16;" vertex="1" parent="1">
          <mxGeometry x="280" y="280" width="120" height="120" as="geometry" />
        </mxCell>
        <mxCell id="_nztfKf8AGVUghUNrm0E-19" value="密钥" style="text;html=1;align=center;verticalAlign=middle;whiteSpace=wrap;rounded=0;fontSize=16;" vertex="1" parent="1">
          <mxGeometry x="30" y="370" width="50" height="30" as="geometry" />
        </mxCell>
        <mxCell id="_nztfKf8AGVUghUNrm0E-20" value="密钥表" style="html=1;dashed=0;whiteSpace=wrap;shape=partialRectangle;right=0;fontSize=16;" vertex="1" parent="1">
          <mxGeometry x="280" y="480" width="120" height="40" as="geometry" />
        </mxCell>
        <mxCell id="_nztfKf8AGVUghUNrm0E-21" value="任务信息" style="text;html=1;align=center;verticalAlign=middle;whiteSpace=wrap;rounded=0;fontSize=16;textDirection=vertical-lr;" vertex="1" parent="1">
          <mxGeometry x="280" y="80" width="30" height="80" as="geometry" />
        </mxCell>
        <mxCell id="_nztfKf8AGVUghUNrm0E-22" style="edgeStyle=orthogonalEdgeStyle;rounded=0;orthogonalLoop=1;jettySize=auto;html=1;exitX=0.5;exitY=1;exitDx=0;exitDy=0;entryX=0.5;entryY=0;entryDx=0;entryDy=0;startArrow=classic;startFill=1;" edge="1" parent="1" source="_nztfKf8AGVUghUNrm0E-18" target="_nztfKf8AGVUghUNrm0E-20">
          <mxGeometry relative="1" as="geometry">
            <mxPoint x="80" y="460" as="sourcePoint" />
            <mxPoint x="230" y="520" as="targetPoint" />
          </mxGeometry>
        </mxCell>
        <mxCell id="_nztfKf8AGVUghUNrm0E-23" value="感知数据" style="text;html=1;align=center;verticalAlign=middle;whiteSpace=wrap;rounded=0;fontSize=16;textDirection=vertical-lr;" vertex="1" parent="1">
          <mxGeometry x="620" y="240" width="30" height="80" as="geometry" />
        </mxCell>
        <mxCell id="_nztfKf8AGVUghUNrm0E-24" value="加密的&lt;span style=&quot;background-color: transparent; color: light-dark(rgb(0, 0, 0), rgb(255, 255, 255));&quot;&gt;感知数据&lt;/span&gt;" style="text;html=1;align=center;verticalAlign=middle;whiteSpace=wrap;rounded=0;fontSize=16;" vertex="1" parent="1">
          <mxGeometry x="400" y="280" width="120" height="30" as="geometry" />
        </mxCell>
        <mxCell id="_nztfKf8AGVUghUNrm0E-25" value="任务感知数据表" style="html=1;dashed=0;whiteSpace=wrap;shape=partialRectangle;right=0;fontSize=16;" vertex="1" parent="1">
          <mxGeometry x="440" y="40" width="120" height="40" as="geometry" />
        </mxCell>
        <mxCell id="_nztfKf8AGVUghUNrm0E-26" value="加密的&lt;div&gt;感知数据&lt;/div&gt;" style="text;html=1;align=center;verticalAlign=middle;whiteSpace=wrap;rounded=0;fontSize=16;textDirection=vertical-lr;" vertex="1" parent="1">
          <mxGeometry x="370" y="60" width="40" height="100" as="geometry" />
        </mxCell>
        <mxCell id="_nztfKf8AGVUghUNrm0E-27" value="任务信息" style="text;html=1;align=center;verticalAlign=middle;whiteSpace=wrap;rounded=0;fontSize=16;" vertex="1" parent="1">
          <mxGeometry x="400" y="220" width="80" height="30" as="geometry" />
        </mxCell>
        <mxCell id="_nztfKf8AGVUghUNrm0E-28" value="加密的感知数据" style="text;html=1;align=center;verticalAlign=middle;whiteSpace=wrap;rounded=0;fontSize=16;" vertex="1" parent="1">
          <mxGeometry x="440" y="150" width="120" height="30" as="geometry" />
        </mxCell>
        <mxCell id="_nztfKf8AGVUghUNrm0E-29" value="加密的聚合感知数据" style="text;html=1;align=center;verticalAlign=middle;whiteSpace=wrap;rounded=0;fontSize=16;" vertex="1" parent="1">
          <mxGeometry x="120" y="220" width="160" height="30" as="geometry" />
        </mxCell>
        <mxCell id="_nztfKf8AGVUghUNrm0E-30" value="加密的聚合感知数据" style="text;html=1;align=center;verticalAlign=middle;whiteSpace=wrap;rounded=0;fontSize=16;" vertex="1" parent="1">
          <mxGeometry x="60" y="320" width="160" height="20" as="geometry" />
        </mxCell>
        <mxCell id="_nztfKf8AGVUghUNrm0E-31" value="解密的聚合感知数据" style="text;html=1;align=center;verticalAlign=middle;whiteSpace=wrap;rounded=0;fontSize=16;" vertex="1" parent="1">
          <mxGeometry x="120" y="290" width="160" height="20" as="geometry" />
        </mxCell>
      </root>
    </mxGraphModel>
  </diagram>
</mxfile>
